# xmcd
#
# Track frame offsets:
#	150
#	18784
#	42882
#	67014
#	87222
#	115390
#	127383
#	153281
#	179755
#	207312
#	230597
#	236650
#
# Disc length: 3388 seconds
#
# Revision: 0
# Processed by: cddbd v1.4PL0 Copyright (c) Steve Scherf et al.
# Submitted via: dBpowerAMP V4.0
#
DISCID=a90d3a0c
DTITLE=Derrick Milan - Peter's Rock Mass Choir
DYEAR=1900
DGENRE=Gospel
TTITLE0=Over and over
TTITLE1=I am a miracle
TTITLE2=I don't know why he loves me
TTITLE3=My soul is a witness
TTITLE4=Perfect God
TTITLE5=The Joy of the Lord
TTITLE6=This is my father's world
TTITLE7=When you want to talk to Jesus
TTITLE8=Love lifted me
TTITLE9=I fpund Jesus
TTITLE10=Great things
TTITLE11=Holy ( I aint mad at cha)
EXTD=
EXTT0=
EXTT1=
EXTT2=
EXTT3=
EXTT4=
EXTT5=
EXTT6=
EXTT7=
EXTT8=
EXTT9=
EXTT10=
EXTT11=
PLAYORDER=
